<?xml version="1.0" encoding="UTF-8"?>
<svg version="1.1" xmlns="http://www.w3.org/2000/svg" width="512" height="512">
<path d="M0 0 C1.67729676 -0.00186989 3.35459308 -0.0041713 5.03188872 -0.00686532 C9.62690213 -0.01296769 14.22189731 -0.01285157 18.81691384 -0.01167095 C23.7781987 -0.01146655 28.73947775 -0.01698945 33.70075989 -0.02172852 C43.41550423 -0.03002699 53.13024251 -0.03278299 62.8449901 -0.03334089 C70.74321602 -0.03381642 78.64143994 -0.03587301 86.53966522 -0.03904152 C108.94301334 -0.04784581 131.34635667 -0.05246123 153.74970654 -0.05171105 C154.9569097 -0.05167109 156.16411287 -0.05163113 157.40789795 -0.05158997 C158.61657861 -0.05154909 159.82525927 -0.0515082 161.07056662 -0.05146609 C180.65802879 -0.05105965 200.24547173 -0.06062913 219.83292833 -0.07472833 C239.95540822 -0.08909813 260.07787873 -0.09599819 280.20036387 -0.09513456 C291.49350086 -0.0948028 302.7866177 -0.09754049 314.07975006 -0.10831261 C323.69487564 -0.11742552 333.30997191 -0.11958633 342.92509994 -0.11280318 C347.82793863 -0.10954203 352.73072114 -0.10946672 357.63355446 -0.11815643 C362.1279704 -0.12604015 366.62228577 -0.12457093 371.11669931 -0.1158723 C372.73643598 -0.11434143 374.35618022 -0.11613777 375.97590795 -0.12173238 C394.2058531 -0.18049335 410.80579255 1.52521244 424.52655029 14.78605652 C435.96669899 28.03370462 439.16991312 42.27616963 439.06182861 59.41545105 C439.06644668 61.02608362 439.07280563 62.63671196 439.08073759 64.24733162 C439.09732983 68.63959248 439.08923095 73.03150264 439.07679272 77.42376423 C439.06770286 82.1736817 439.08173139 86.92354094 439.0927124 91.67344666 C439.11046035 100.96523574 439.10667426 110.25689529 439.09506184 119.54868937 C439.08601311 127.10310329 439.08480974 134.65748101 439.0891571 142.2118988 C439.08977004 143.28877492 439.09038297 144.36565104 439.09101447 145.47515976 C439.09229343 147.66309533 439.09359028 149.85103088 439.09490484 152.03896642 C439.10629973 172.5353531 439.09321405 193.03166811 439.07170337 213.52804303 C439.0538334 231.09910944 439.05693781 248.67007014 439.07537842 266.24113464 C439.0968044 286.66624885 439.1052012 307.09130031 439.09292936 327.51642418 C439.09165522 329.69612502 439.09039774 331.87582587 439.0891571 334.05552673 C439.08823145 335.66403509 439.08823145 335.66403509 439.0872871 337.30503857 C439.08383939 344.84676126 439.08965005 352.38844402 439.09907532 359.93016052 C439.11031588 369.12618604 439.10721203 378.32207504 439.08595234 387.518085 C439.07546962 392.20632912 439.07127255 396.89434597 439.08454895 401.5825882 C439.09653646 405.88082384 439.08980644 410.17862325 439.06863874 414.47681975 C439.06419946 416.0251001 439.06637821 417.5734179 439.07614189 419.12167382 C439.17292396 435.75481793 434.99779715 449.8430929 423.58905029 462.25480652 C409.2041129 475.53533413 392.62793985 476.28701184 374.10778809 476.26742554 C372.43049133 476.26929543 370.753195 476.27159684 369.07589936 476.27429086 C364.48088595 476.28039323 359.88589078 476.28027711 355.29087424 476.27909648 C350.32958939 476.27889208 345.36831034 476.28441499 340.4070282 476.28915405 C330.69228385 476.29745253 320.97754558 476.30020853 311.26279798 476.30076643 C303.36457207 476.30124196 295.46634815 476.30329855 287.56812286 476.30646706 C265.16477474 476.31527134 242.76143141 476.31988677 220.35808155 476.31913658 C219.15087838 476.31909663 217.94367522 476.31905667 216.69989014 476.3190155 C215.49120947 476.31897462 214.28252881 476.31893374 213.03722146 476.31889162 C193.4497593 476.31848519 173.86231636 476.32805466 154.27485976 476.34215387 C134.15237987 476.35652366 114.02990936 476.36342372 93.90742421 476.36256009 C82.61428722 476.36222834 71.32117039 476.36496603 60.02803802 476.37573814 C50.41291245 476.38485106 40.79781617 476.38701187 31.18268815 476.38022872 C26.27984945 476.37696756 21.37706695 476.37689226 16.47423363 476.38558197 C11.97981769 476.39346568 7.48550232 476.39199647 2.99108878 476.38329784 C1.37135211 476.38176697 -0.24839214 476.38356331 -1.86811987 476.38915791 C-20.22548164 476.44832959 -36.64750914 474.77078068 -50.48516846 461.34465027 C-61.85734299 448.52263676 -64.0588652 434.19130753 -63.9473114 417.64233398 C-63.95121284 416.02116414 -63.95686 414.39999774 -63.9640823 412.77883929 C-63.97873342 408.36216596 -63.96871791 403.94585292 -63.95434558 399.52919161 C-63.94318063 394.75138769 -63.95519646 389.97363204 -63.96418762 385.1958313 C-63.97808368 375.85203862 -63.97059127 366.50838156 -63.95551204 357.1645954 C-63.93861051 346.2752853 -63.94186734 335.38600858 -63.94560612 324.4966894 C-63.95147783 305.06487884 -63.93733907 285.63313318 -63.91265869 266.20133972 C-63.88873004 247.35919259 -63.88165919 228.51713213 -63.89215088 209.67497253 C-63.90356656 189.13670817 -63.90548286 168.59848383 -63.89105278 148.06021994 C-63.889527 145.86933657 -63.88800664 143.67845319 -63.88649178 141.48756981 C-63.88573396 140.40971625 -63.88497615 139.33186268 -63.88419537 138.22134689 C-63.87945836 130.63610236 -63.88129977 123.05087574 -63.88555717 115.46563148 C-63.89048955 106.22054914 -63.88447367 96.97554863 -63.86466288 87.730485 C-63.85480877 83.01619036 -63.8496655 78.3020202 -63.85755539 73.58771896 C-63.86463673 69.26810355 -63.85775047 64.94873879 -63.83995176 60.62915631 C-63.83592322 59.07084771 -63.83688022 57.51251609 -63.84347063 55.95421622 C-63.90494983 40.05015121 -60.93639728 26.12586547 -49.73907471 14.23527527 C-35.15609231 0.86961168 -18.77102227 -0.01985162 0 0 Z " fill="#84D9F9" transform="translate(68.44610595703125,17.866287231445313)"/>
<path d="M0 0 C2.34064306 0.00316303 4.68001901 -0.02043773 7.02050781 -0.0456543 C22.4852933 -0.11279182 37.15663322 2.26261783 51.91113281 6.94067383 C53.01303955 7.28694824 54.11494629 7.63322266 55.25024414 7.98999023 C88.32956148 18.7211426 117.66607077 39.87919313 134.02050781 71.12036133 C145.41434514 93.98806553 147.80325076 120.21588384 139.77441406 144.53833008 C137.76204462 150.12898927 135.21862398 155.33750761 132.29394531 160.50317383 C130.91404186 163.44261314 130.57751105 165.11919124 130.97363281 168.31567383 C131.42738281 169.07879883 131.88113281 169.84192383 132.34863281 170.62817383 C132.97363281 173.31567383 132.97363281 173.31567383 131.77050781 175.40942383 C130.23643417 177.44529726 128.65567536 179.40080619 126.97363281 181.31567383 C122.88649315 180.69208451 119.67123449 179.32886466 115.97363281 177.50317383 C95.33098796 167.76696038 68.87376977 165.15713613 46.95947266 172.58374023 C27.46662461 179.76834295 10.5160531 191.26001497 0.97363281 210.31567383 C-2.7545248 218.44871734 -3.9745199 226.46262582 -5.02636719 235.31567383 C-9.31636719 235.31567383 -13.60636719 235.31567383 -18.02636719 235.31567383 C-19.01636719 232.84067383 -19.01636719 232.84067383 -20.02636719 230.31567383 C-22.60762526 228.57502949 -25.11616378 227.97149629 -28.15917969 227.45629883 C-28.95638428 227.31337402 -29.75358887 227.17044922 -30.57495117 227.02319336 C-31.42516846 226.87221191 -32.27538574 226.72123047 -33.15136719 226.56567383 C-45.69597761 224.18634624 -57.57506755 220.61944698 -69.02636719 214.94067383 C-74.64799733 212.30837877 -78.88559713 210.74377488 -85.02636719 212.31567383 C-90.57810413 214.61172622 -95.78724553 217.38703522 -101.02636719 220.31567383 C-102.26586016 220.99292257 -103.50544002 221.67001231 -104.74511719 222.34692383 C-111.62676497 226.15573518 -118.20645563 230.31437061 -124.69824219 234.74926758 C-127.02636719 236.31567383 -127.02636719 236.31567383 -129.02636719 237.31567383 C-127.74892371 233.25257942 -126.24096461 229.49562467 -124.34667969 225.68286133 C-123.82976562 224.6284082 -123.31285156 223.57395508 -122.78027344 222.48754883 C-121.70517558 220.3115714 -120.62711009 218.13705738 -119.54589844 215.96411133 C-112.26376975 201.78998452 -112.26376975 201.78998452 -111.02636719 186.31567383 C-112.64313966 183.90537516 -114.0347959 182.15748152 -116.02636719 180.12817383 C-134.37345095 159.97063937 -141.87123675 134.95177948 -141.16259766 108.14233398 C-139.82298841 80.34664241 -124.66528034 55.46892048 -104.47558594 36.97973633 C-86.393839 21.71070558 -65.92568398 11.19099801 -43.02636719 5.31567383 C-42.05828125 5.02176758 -41.09019531 4.72786133 -40.09277344 4.42504883 C-27.0764776 0.47954459 -13.5045455 -0.03793412 0 0 Z " fill="#FEFEFE" transform="translate(254.0263671875,108.684326171875)"/>
<path d="M0 0 C1.67729676 -0.00186989 3.35459308 -0.0041713 5.03188872 -0.00686532 C9.62690213 -0.01296769 14.22189731 -0.01285157 18.81691384 -0.01167095 C23.7781987 -0.01146655 28.73947775 -0.01698945 33.70075989 -0.02172852 C43.41550423 -0.03002699 53.13024251 -0.03278299 62.8449901 -0.03334089 C70.74321602 -0.03381642 78.64143994 -0.03587301 86.53966522 -0.03904152 C108.94301334 -0.04784581 131.34635667 -0.05246123 153.74970654 -0.05171105 C154.9569097 -0.05167109 156.16411287 -0.05163113 157.40789795 -0.05158997 C158.61657861 -0.05154909 159.82525927 -0.0515082 161.07056662 -0.05146609 C180.65802879 -0.05105965 200.24547173 -0.06062913 219.83292833 -0.07472833 C239.95540822 -0.08909813 260.07787873 -0.09599819 280.20036387 -0.09513456 C291.49350086 -0.0948028 302.7866177 -0.09754049 314.07975006 -0.10831261 C323.69487564 -0.11742552 333.30997191 -0.11958633 342.92509994 -0.11280318 C347.82793863 -0.10954203 352.73072114 -0.10946672 357.63355446 -0.11815643 C362.1279704 -0.12604015 366.62228577 -0.12457093 371.11669931 -0.1158723 C372.73643598 -0.11434143 374.35618022 -0.11613777 375.97590795 -0.12173238 C394.2058531 -0.18049335 410.80579255 1.52521244 424.52655029 14.78605652 C435.96669899 28.03370462 439.16991312 42.27616963 439.06182861 59.41545105 C439.06644668 61.02608362 439.07280563 62.63671196 439.08073759 64.24733162 C439.09732983 68.63959248 439.08923095 73.03150264 439.07679272 77.42376423 C439.06770286 82.1736817 439.08173139 86.92354094 439.0927124 91.67344666 C439.11046035 100.96523574 439.10667426 110.25689529 439.09506184 119.54868937 C439.08601311 127.10310329 439.08480974 134.65748101 439.0891571 142.2118988 C439.08977004 143.28877492 439.09038297 144.36565104 439.09101447 145.47515976 C439.09229343 147.66309533 439.09359028 149.85103088 439.09490484 152.03896642 C439.10629973 172.5353531 439.09321405 193.03166811 439.07170337 213.52804303 C439.0538334 231.09910944 439.05693781 248.67007014 439.07537842 266.24113464 C439.0968044 286.66624885 439.1052012 307.09130031 439.09292936 327.51642418 C439.09165522 329.69612502 439.09039774 331.87582587 439.0891571 334.05552673 C439.08823145 335.66403509 439.08823145 335.66403509 439.0872871 337.30503857 C439.08383939 344.84676126 439.08965005 352.38844402 439.09907532 359.93016052 C439.11031588 369.12618604 439.10721203 378.32207504 439.08595234 387.518085 C439.07546962 392.20632912 439.07127255 396.89434597 439.08454895 401.5825882 C439.09653646 405.88082384 439.08980644 410.17862325 439.06863874 414.47681975 C439.06419946 416.0251001 439.06637821 417.5734179 439.07614189 419.12167382 C439.17292396 435.75481793 434.99779715 449.8430929 423.58905029 462.25480652 C409.2041129 475.53533413 392.62793985 476.28701184 374.10778809 476.26742554 C372.43049133 476.26929543 370.753195 476.27159684 369.07589936 476.27429086 C364.48088595 476.28039323 359.88589078 476.28027711 355.29087424 476.27909648 C350.32958939 476.27889208 345.36831034 476.28441499 340.4070282 476.28915405 C330.69228385 476.29745253 320.97754558 476.30020853 311.26279798 476.30076643 C303.36457207 476.30124196 295.46634815 476.30329855 287.56812286 476.30646706 C265.16477474 476.31527134 242.76143141 476.31988677 220.35808155 476.31913658 C219.15087838 476.31909663 217.94367522 476.31905667 216.69989014 476.3190155 C215.49120947 476.31897462 214.28252881 476.31893374 213.03722146 476.31889162 C193.4497593 476.31848519 173.86231636 476.32805466 154.27485976 476.34215387 C134.15237987 476.35652366 114.02990936 476.36342372 93.90742421 476.36256009 C82.61428722 476.36222834 71.32117039 476.36496603 60.02803802 476.37573814 C50.41291245 476.38485106 40.79781617 476.38701187 31.18268815 476.38022872 C26.27984945 476.37696756 21.37706695 476.37689226 16.47423363 476.38558197 C11.97981769 476.39346568 7.48550232 476.39199647 2.99108878 476.38329784 C1.37135211 476.38176697 -0.24839214 476.38356331 -1.86811987 476.38915791 C-20.22548164 476.44832959 -36.64750914 474.77078068 -50.48516846 461.34465027 C-61.85734299 448.52263676 -64.0588652 434.19130753 -63.9473114 417.64233398 C-63.95121284 416.02116414 -63.95686 414.39999774 -63.9640823 412.77883929 C-63.97873342 408.36216596 -63.96871791 403.94585292 -63.95434558 399.52919161 C-63.94318063 394.75138769 -63.95519646 389.97363204 -63.96418762 385.1958313 C-63.97808368 375.85203862 -63.97059127 366.50838156 -63.95551204 357.1645954 C-63.93861051 346.2752853 -63.94186734 335.38600858 -63.94560612 324.4966894 C-63.95147783 305.06487884 -63.93733907 285.63313318 -63.91265869 266.20133972 C-63.88873004 247.35919259 -63.88165919 228.51713213 -63.89215088 209.67497253 C-63.90356656 189.13670817 -63.90548286 168.59848383 -63.89105278 148.06021994 C-63.889527 145.86933657 -63.88800664 143.67845319 -63.88649178 141.48756981 C-63.88573396 140.40971625 -63.88497615 139.33186268 -63.88419537 138.22134689 C-63.87945836 130.63610236 -63.88129977 123.05087574 -63.88555717 115.46563148 C-63.89048955 106.22054914 -63.88447367 96.97554863 -63.86466288 87.730485 C-63.85480877 83.01619036 -63.8496655 78.3020202 -63.85755539 73.58771896 C-63.86463673 69.26810355 -63.85775047 64.94873879 -63.83995176 60.62915631 C-63.83592322 59.07084771 -63.83688022 57.51251609 -63.84347063 55.95421622 C-63.90494983 40.05015121 -60.93639728 26.12586547 -49.73907471 14.23527527 C-35.15609231 0.86961168 -18.77102227 -0.01985162 0 0 Z M-40.44610596 24.13371277 C-49.09377555 35.27163831 -49.74296956 45.23534183 -49.70680237 58.83436584 C-49.70982491 60.4428173 -49.71371491 62.05126733 -49.71839494 63.65971482 C-49.72867036 68.06897253 -49.72649427 72.47814889 -49.72221434 76.88741326 C-49.7197463 81.64689017 -49.72876225 86.40634752 -49.73625183 91.16581726 C-49.74899862 100.48599314 -49.75079255 109.8061402 -49.74845157 119.12632333 C-49.74666825 126.7023282 -49.74841836 134.27832433 -49.75267601 141.85432816 C-49.7532712 142.93274789 -49.75386639 144.01116763 -49.75447961 145.12226675 C-49.75569137 147.31310716 -49.7569055 149.50394758 -49.75812199 151.69478799 C-49.76899743 172.23872834 -49.766835 192.78265226 -49.76073714 213.32659353 C-49.75556786 232.11754239 -49.76682374 250.9084394 -49.78583536 269.699378 C-49.80521086 288.99803624 -49.81347027 308.29666995 -49.80971211 327.59533799 C-49.80779965 338.42841747 -49.81029207 349.26145283 -49.82442665 360.09452438 C-49.83633772 369.31671408 -49.83774838 378.53883248 -49.82563648 387.76102315 C-49.81974594 392.46503291 -49.81865329 397.16891227 -49.83063889 401.87291336 C-49.84149111 406.18221913 -49.83840217 410.4912855 -49.8243772 414.80058004 C-49.82172846 416.35636306 -49.82410238 417.91216481 -49.83211306 419.46792947 C-49.89073968 431.70701905 -48.85672276 442.6298921 -40.44610596 452.13371277 C-29.49374713 461.5817275 -19.50846912 462.57572643 -5.68919373 462.52139282 C-3.96595882 462.52556776 -2.24272667 462.53104615 -0.5194996 462.53771263 C4.20710162 462.5521652 8.93352844 462.54792307 13.6601392 462.54054582 C18.76115946 462.53581596 23.86214189 462.54832246 28.96315002 462.55856323 C38.95343811 462.57576059 48.94366333 462.57658922 58.93396238 462.57135033 C67.05487044 462.56730884 75.17575993 462.56875194 83.2966671 462.57409859 C84.45250823 462.57484701 85.60834935 462.57559543 86.79921597 462.57636653 C89.14732666 462.57789801 91.49543734 462.57943636 93.84354802 462.5809815 C115.86494014 462.59471014 137.88629674 462.58926647 159.90768804 462.57779629 C180.04948001 462.56786538 200.1911801 462.5808015 220.3329579 462.60473048 C241.01815084 462.62911973 261.70330099 462.63872966 282.38850802 462.63207775 C294.00019578 462.62858492 305.61181288 462.63082181 317.22348976 462.64832878 C327.10918649 462.66304863 336.99476283 462.66368906 346.8804572 462.64625787 C351.92283944 462.63774344 356.96500658 462.63560924 362.00737762 462.65090942 C366.62704727 462.66475326 371.24631749 462.65999715 375.86596402 462.64067019 C377.53347234 462.63690893 379.20101262 462.63983579 380.86849246 462.65028184 C392.70314146 462.71912464 403.23518074 461.63875471 412.77264404 453.89933777 C419.6786881 447.05387305 424.27671389 437.78294291 424.68269521 428.04392231 C424.68448378 426.87616956 424.68627235 425.70841682 424.68811512 424.50527763 C424.69164347 423.52146622 424.69164347 423.52146622 424.69524309 422.51777983 C424.7019082 420.31665116 424.70147562 418.11558186 424.70106506 415.91444397 C424.70436523 414.32166966 424.70809112 412.72889619 424.71220654 411.13612378 C424.72221713 406.75624694 424.72594182 402.37638381 424.72859585 397.99649715 C424.73250165 393.27376156 424.74207974 388.55103679 424.75080872 383.82830811 C424.77056446 372.42201124 424.78063783 361.01571349 424.78953651 349.60940379 C424.79392052 344.23733982 424.79928701 338.86527684 424.80452538 333.49321365 C424.82153612 315.63460685 424.8360305 297.77600067 424.84327412 279.91738701 C424.84518399 275.28376642 424.84710433 270.65014584 424.84906006 266.01652527 C424.8495438 264.86487027 424.85002754 263.71321528 424.85052594 262.52666165 C424.85882705 243.86875143 424.88416605 225.21090531 424.91664074 206.55302308 C424.94971279 187.39571016 424.96772298 168.23842981 424.97091836 149.08108819 C424.97308322 138.32559809 424.9818286 127.57020149 425.00737953 116.81473923 C425.02908842 107.65544593 425.03713596 98.49626884 425.02741275 89.33695273 C425.02286874 84.66519966 425.02476027 79.99368635 425.04417419 75.32196617 C425.06181119 71.04080834 425.06080386 66.7600651 425.0452769 62.47890283 C425.04290166 60.93444721 425.04722008 59.38996283 425.05910555 57.84555112 C425.15250321 44.9022337 423.14591651 34.43838631 414.24139404 24.57121277 C403.2570541 14.60867189 393.04498343 13.68943198 378.66999817 13.74603271 C376.94518752 13.74185676 375.22037962 13.7363778 373.4955768 13.7297129 C368.76930423 13.71527408 364.04320628 13.71949814 359.31692421 13.72687972 C354.21457737 13.73161291 349.11226821 13.71910022 344.00993347 13.7088623 C334.01944959 13.69167226 324.02902859 13.69083469 314.03853375 13.69607521 C305.91811775 13.70011757 297.79772033 13.69867256 289.67730522 13.69332695 C287.94331368 13.69220432 287.94331368 13.69220432 286.17429201 13.691059 C283.82585712 13.68952752 281.47742224 13.68798917 279.12898736 13.68644404 C257.1095287 13.67271838 235.09010557 13.67815727 213.07064771 13.68962925 C192.92824376 13.69956281 172.78593166 13.68661892 152.64354188 13.66269506 C131.9571921 13.63831035 111.2708851 13.62869458 90.58452123 13.63534778 C78.97232132 13.63884125 67.36019205 13.63659941 55.74800301 13.61909676 C45.86339985 13.60438272 35.97891709 13.60372902 26.09431631 13.62116767 C21.05205101 13.62968634 16.01000088 13.6318059 10.96774673 13.61651611 C6.34940277 13.6026852 1.73145864 13.60741172 -2.88686211 13.62675535 C-4.55499568 13.63052053 -6.22316115 13.62757844 -7.89126634 13.6171437 C-20.26012618 13.54529013 -31.29367907 14.94338763 -40.44610596 24.13371277 Z " fill="#41527F" transform="translate(68.44610595703125,17.866287231445313)"/>
<path d="M0 0 C1.06347656 0.350625 2.12695312 0.70125 3.22265625 1.0625 C19.45496027 7.09463362 30.30194108 18.64342697 37.65234375 33.86328125 C41.96472189 43.90049761 41.13500971 56.18135767 37.2734375 66.24609375 C34.69743189 71.81690344 31.80969301 77.04743649 27.625 81.5625 C25.14730021 85.27904968 25.37547861 88.66424234 26 93 C26.81226632 95.80347919 27.82818406 98.31458848 29 101 C25.83842764 100.02141808 23.0617897 99.03570071 20.1875 97.375 C14.84075713 95.0685619 10.5093593 95.15052817 4.98828125 97.01953125 C2.77844681 97.90186563 0.57152138 98.79151209 -1.6328125 99.6875 C-20.46037078 107.02631622 -41.81074262 105.64081476 -60.25 97.8125 C-67.14689366 94.71544501 -73.19867186 90.87506567 -79 86 C-79.65355469 85.45859375 -80.30710937 84.9171875 -80.98046875 84.359375 C-90.11089606 76.05532191 -95.29100649 64.46714866 -96.19921875 52.33984375 C-96.67704762 39.83390875 -92.79678762 28.77574325 -85 19 C-81.86733019 15.71692054 -78.55768446 12.81305283 -75 10 C-74.30261719 9.44570313 -73.60523438 8.89140625 -72.88671875 8.3203125 C-52.46726992 -6.52320398 -23.33818127 -7.90948395 0 0 Z " fill="#FEFEFE" transform="translate(358,294)"/>
<path d="M0 0 C2.31406429 0.01080421 4.62736384 -0.00002364 6.94140625 -0.01269531 C15.83751538 -0.02120986 24.27977845 0.63419118 33.05078125 2.26074219 C34.6271987 2.50297906 36.20399278 2.74278491 37.78125 2.97949219 C76.21358199 9.43813483 112.63762825 31.00129087 136.05078125 62.26074219 C153.60719075 87.25438117 161.00128193 117.59217767 156.05078125 147.88574219 C153.82604117 159.891217 149.02207066 174.79155279 141.05078125 184.26074219 C137.48828125 185.51074219 137.48828125 185.51074219 134.05078125 185.26074219 C131.61328125 183.63574219 131.61328125 183.63574219 130.05078125 181.26074219 C129.46795713 176.73802704 130.97275856 174.15179526 133.17578125 170.26074219 C143.51756183 150.53716632 146.43239052 127.97382468 141.05078125 106.26074219 C140.81746094 105.19597656 140.58414062 104.13121094 140.34375 103.03417969 C136.66142125 88.13672184 128.80531222 74.98940443 119.05078125 63.26074219 C118.2928125 62.3390625 117.53484375 61.41738281 116.75390625 60.46777344 C93.3632212 33.36974125 56.06812339 18.08130164 21.05078125 14.26074219 C15.75128568 13.9616421 10.44712805 13.97188737 5.14086914 14 C2.75185499 14.0106815 0.3636003 14.00006298 -2.02539062 13.98730469 C-15.94098737 13.97269264 -29.44142359 15.10745843 -42.88671875 18.94824219 C-43.81492432 19.20879395 -44.74312988 19.4693457 -45.69946289 19.73779297 C-64.13948168 25.07965125 -81.90476264 33.2251773 -96.94921875 45.26074219 C-97.49964844 45.69902344 -98.05007812 46.13730469 -98.6171875 46.58886719 C-120.28004921 63.99566998 -136.59134245 87.95213322 -139.75952148 116.09301758 C-142.19640084 143.93993112 -134.62857229 169.32614291 -116.81640625 191.08886719 C-115.68903122 192.40020718 -114.53435505 193.68963509 -113.33203125 194.93261719 C-110.66409741 197.73620868 -109.96219765 199.07770156 -109.68359375 203.00683594 C-110.11499564 218.31464493 -121.36141239 234.89973755 -127.94921875 248.26074219 C-125.14537926 246.91186171 -122.5383231 245.41582383 -119.9296875 243.72167969 C-119.16156738 243.22716309 -118.39344727 242.73264648 -117.60205078 242.22314453 C-116.78849121 241.69930176 -115.97493164 241.17545898 -115.13671875 240.63574219 C-106.94950512 235.41283743 -98.67068966 230.5445881 -89.94921875 226.26074219 C-89.19382812 225.86113281 -88.4384375 225.46152344 -87.66015625 225.04980469 C-79.31713155 222.6214315 -72.80273215 224.69264883 -65.26171875 228.38574219 C-51.80203269 234.57229536 -37.6585406 238.27600237 -23.04956055 240.62036133 C-20.5554433 241.38080182 -19.47991383 242.15630752 -17.94921875 244.26074219 C-18.28255208 250.59407552 -18.28255208 250.59407552 -20.94921875 253.26074219 C-37.70302858 256.06937307 -60.96146495 246.925743 -75.4921875 239.04589844 C-80.48216185 237.45132794 -84.69119871 238.97700347 -89.19921875 241.23730469 C-90.79020646 242.10624684 -92.37318017 242.98997171 -93.94921875 243.88574219 C-94.79919434 244.35995605 -95.64916992 244.83416992 -96.52490234 245.32275391 C-106.62296 251.05625741 -116.28473647 257.48509972 -125.92822266 263.94482422 C-129.83146274 266.48631541 -133.35086889 267.04561823 -137.94921875 266.26074219 C-140.9743002 264.52472114 -143.36711944 262.42494082 -144.94921875 259.26074219 C-145.35836589 253.3116171 -144.7117616 249.81732599 -141.87890625 244.44433594 C-141.56019562 243.82534927 -141.24148499 243.20636261 -140.91311646 242.56861877 C-139.89856421 240.60352385 -138.86307373 238.65058147 -137.82421875 236.69824219 C-128.18840546 220.93293698 -128.18840546 220.93293698 -124.21435547 203.93969727 C-125.14059335 201.82350528 -126.33411743 200.53823011 -127.94921875 198.88574219 C-137.09323943 188.72988315 -143.01932383 176.89193241 -147.94921875 164.26074219 C-148.56796875 162.68292969 -148.56796875 162.68292969 -149.19921875 161.07324219 C-155.94961546 142.41038069 -156.64103737 118.27003032 -150.88671875 99.19824219 C-150.67120361 98.47999268 -150.45568848 97.76174316 -150.23364258 97.02172852 C-144.33819631 78.27979305 -133.91935317 62.82266583 -120.94921875 48.26074219 C-120.3665625 47.60460937 -119.78390625 46.94847656 -119.18359375 46.27246094 C-99.23089327 25.16089149 -70.83553142 11.78372676 -43.13671875 4.57324219 C-42.37979736 4.37069824 -41.62287598 4.1681543 -40.84301758 3.95947266 C-27.44183254 0.62205011 -13.75051947 -0.0761315 0 0 Z " fill="#42527E" transform="translate(253.94921875,95.7392578125)"/>
<path d="M0 0 C0.69867188 0.60328125 1.39734375 1.2065625 2.1171875 1.828125 C2.79523438 2.41078125 3.47328125 2.9934375 4.171875 3.59375 C14.93221914 13.55858232 22.57050978 27.92804067 23.30859375 42.64453125 C23.62032429 56.83832678 21.20787701 69.64785016 12.1171875 81.015625 C9.73416585 84.18618564 9.73416585 84.18618564 9.09375 87.95703125 C9.85470073 90.44616526 10.87635158 92.53573322 12.1171875 94.828125 C13.04908777 96.58393709 13.98026003 98.34019582 14.89599609 100.10449219 C15.8312567 101.88473183 16.8094117 103.64223424 17.7890625 105.3984375 C19.35033239 109.43018739 19.14986542 111.67222606 18.1171875 115.828125 C16.5546875 118.265625 16.5546875 118.265625 14.1171875 119.828125 C6.81858648 120.71352906 2.85065279 118.44210186 -3.1328125 114.453125 C-4.69985494 113.44427742 -6.2675409 112.43642856 -7.8359375 111.4296875 C-8.51817383 110.97932129 -9.20041016 110.52895508 -9.90332031 110.06494141 C-13.76224451 107.50660201 -13.76224451 107.50660201 -18.1875 107.05078125 C-21.50615063 108.00789933 -24.74951061 109.11943738 -28.0078125 110.265625 C-51.97822696 118.33564529 -76.97364022 116.27290754 -99.78125 105.453125 C-119.55586175 95.26116825 -131.63091728 79.86079336 -138.5 58.94921875 C-141.42610883 42.73618717 -137.26002625 26.63217353 -128.06640625 13.16796875 C-115.33650551 -3.47091161 -95.27438631 -16.0896107 -74.28076172 -18.94482422 C-47.52691581 -21.47802282 -21.33369546 -17.46174362 0 0 Z M-105.8828125 8.828125 C-106.63175781 9.38886719 -107.38070313 9.94960938 -108.15234375 10.52734375 C-117.49510505 18.11933207 -124.16428384 28.83245462 -125.8828125 40.828125 C-126.93514348 54.23240654 -123.95942127 65.63534313 -115.875 76.53515625 C-102.78943558 91.80164808 -84.58274031 100.28336115 -64.68408203 102.02001953 C-50.99579882 102.94808804 -37.68087133 100.8069537 -25.10546875 95.19140625 C-20.79162036 93.36651766 -17.48188831 92.98719366 -12.8828125 93.828125 C-10.11771825 95.00467656 -7.55075398 96.32973626 -4.94921875 97.83203125 C-4.26730469 98.16074219 -3.58539063 98.48945313 -2.8828125 98.828125 C-2.2228125 98.498125 -1.5628125 98.168125 -0.8828125 97.828125 C-1.3778125 96.85875 -1.8728125 95.889375 -2.3828125 94.890625 C-4.20959559 90.44396764 -5.0802254 86.56472668 -3.8828125 81.828125 C-2.09826539 78.96164232 -0.09191043 76.38545573 2.0078125 73.7421875 C9.5933808 63.26286537 11.22721498 51.39189974 10.1171875 38.828125 C7.1252758 24.4813677 -2.54973111 13.11997951 -14.4453125 5.203125 C-27.41180445 -3.08840872 -41.77415924 -6.57476253 -57.0703125 -6.484375 C-58.07626465 -6.47873535 -59.0822168 -6.4730957 -60.11865234 -6.46728516 C-77.18985347 -6.19119367 -92.16489866 -1.59343246 -105.8828125 8.828125 Z " fill="#42527E" transform="translate(387.8828125,296.171875)"/>
</svg>
